<svg width="32" height="32" viewBox="0 0 32 32" fill="none" xmlns="http://www.w3.org/2000/svg">
<path d="M16 13.5853V18.6667" stroke="#4AB5B0" stroke-width="2.66667" stroke-linecap="round" stroke-linejoin="round"/>
<path d="M16 2.66663V6.66663" stroke="#4AB5B0" stroke-width="2.66667" stroke-linecap="round" stroke-linejoin="round"/>
<path d="M25.3334 17.3333V9.33329C25.3334 8.62605 25.0524 7.94777 24.5523 7.44767C24.0522 6.94758 23.3739 6.66663 22.6667 6.66663H9.33335C8.62611 6.66663 7.94783 6.94758 7.44774 7.44767C6.94764 7.94777 6.66669 8.62605 6.66669 9.33329V17.3333" stroke="#4AB5B0" stroke-width="2.66667" stroke-linecap="round" stroke-linejoin="round"/>
<path d="M25.84 26.6666C27.2742 24.2461 28.021 21.4801 28 18.6666L17.0826 13.8146C16.7418 13.6632 16.373 13.585 16 13.585C15.627 13.585 15.2582 13.6632 14.9173 13.8146L3.99998 18.6666C3.93825 22.4582 5.2716 26.1403 7.74664 29.0133" stroke="#4AB5B0" stroke-width="2.66667" stroke-linecap="round" stroke-linejoin="round"/>
<path d="M2.66669 28C3.46669 28.6666 4.26669 29.3333 6.00002 29.3333C9.33335 29.3333 9.33335 26.6666 12.6667 26.6666C14.4 26.6666 15.2 27.3333 16 28C16.8 28.6666 17.6 29.3333 19.3334 29.3333C22.6667 29.3333 22.6667 26.6666 26 26.6666C27.7334 26.6666 28.5334 27.3333 29.3334 28" stroke="#4AB5B0" stroke-width="2.66667" stroke-linecap="round" stroke-linejoin="round"/>
</svg>
