<svg width="32" height="32" viewBox="0 0 32 32" fill="none" xmlns="http://www.w3.org/2000/svg">
<g clip-path="url(#clip0_3_431)">
<path d="M23.296 19.1761C22.9 18.9774 20.952 18.0201 20.5893 17.8867C20.2253 17.7547 19.9613 17.6894 19.696 18.0867C19.4333 18.4827 18.6733 19.3747 18.4427 19.6387C18.212 19.9041 17.98 19.9361 17.584 19.7387C17.188 19.5387 15.9107 19.1214 14.3973 17.7721C13.22 16.7214 12.424 15.4241 12.1933 15.0267C11.9627 14.6307 12.1693 14.4161 12.3667 14.2187C12.5453 14.0414 12.764 13.7561 12.9613 13.5254C13.16 13.2934 13.2253 13.1281 13.3587 12.8627C13.4907 12.5987 13.4253 12.3681 13.3253 12.1694C13.2253 11.9707 12.4333 10.0201 12.104 9.22672C11.7813 8.45472 11.4547 8.56005 11.212 8.54672C10.9813 8.53605 10.7173 8.53339 10.452 8.53339C10.188 8.53339 9.75866 8.63205 9.39599 9.02939C9.03332 9.42539 8.00932 10.3841 8.00932 12.3347C8.00932 14.2841 9.42932 16.1681 9.62666 16.4334C9.82532 16.6974 12.4213 20.7001 16.396 22.4161C17.3413 22.8241 18.0787 23.0681 18.6547 23.2494C19.604 23.5521 20.468 23.5094 21.1493 23.4067C21.9107 23.2934 23.4933 22.4481 23.824 21.5227C24.1547 20.5974 24.1547 19.8041 24.0547 19.6387C23.956 19.4734 23.6933 19.3747 23.296 19.1761ZM16.0667 29.0467H16.0613C13.701 29.0469 11.3841 28.4123 9.35332 27.2094L8.87199 26.9241L3.88399 28.2334L5.21466 23.3694L4.90132 22.8707C3.58191 20.7697 2.88391 18.3383 2.88799 15.8574C2.88932 8.59072 8.80266 2.67872 16.072 2.67872C19.592 2.67872 22.9013 4.05205 25.3893 6.54272C26.6169 7.76488 27.5899 9.21836 28.252 10.819C28.9141 12.4197 29.2522 14.1358 29.2467 15.8681C29.2427 23.1347 23.3307 29.0467 16.0667 29.0467ZM27.284 4.65072C25.8149 3.17195 24.067 1.99944 22.1414 1.20112C20.2159 0.402806 18.1511 -0.005435 16.0667 5.46367e-05C7.32666 5.46367e-05 0.213322 7.11339 0.209322 15.8561C0.209322 18.6507 0.938655 21.3787 2.32666 23.7827L0.0759888 32.0001L8.48266 29.7947C10.8074 31.0613 13.4126 31.7251 16.06 31.7254H16.0667C24.8053 31.7254 31.92 24.6121 31.924 15.8681C32.0879 11.739 30.6237 7.71077 27.8467 4.65072" fill="white"/>
</g>
<defs>
<clipPath id="clip0_3_431">
<rect width="32" height="32" fill="white"/>
</clipPath>
</defs>
</svg>
